<svg xmlns="http://www.w3.org/2000/svg" width="220.415" height="28" viewBox="0 0 220.415 28"><path d="M32.086.463a13.883 13.883 0 019.852 3.922 13.52 13.52 0 012.966 4.3 12.865 12.865 0 011.061 5.311 13.412 13.412 0 01-1.061 5.311 13.971 13.971 0 01-2.966 4.3 13.119 13.119 0 01-4.409 2.86 13.57 13.57 0 01-5.443 1.062H21.717V.463zm3.429 21.3a7.459 7.459 0 002.64-1.8 8.859 8.859 0 001.687-2.7 8.716 8.716 0 00.6-3.268 9 9 0 00-.6-3.323 7.962 7.962 0 00-1.69-2.665 8.314 8.314 0 00-2.64-1.825 9.263 9.263 0 00-3.429-.654h-4.841v16.917h4.844a8.293 8.293 0 003.43-.683zM83.904.463v27.046h-5.523V.463zm25.745 16.451a7.2 7.2 0 01-7.457 5.747c-5.769 0-7.593-4.467-7.593-8.661s1.851-8.661 7.593-8.661a7.171 7.171 0 017.457 5.747h5.661C114.194 4.44 109.295 0 102.41 0c-7.838 0-13.553 5.747-13.553 14 0 8.226 5.688 14 13.553 14 6.885 0 11.784-4.412 12.9-11.058h-5.661zM154.826.463v27.046h-5.525V.463zm-29.364 0v10.976H137.6V.463h5.552v27.046h-5.525V16.287h-12.165v11.222h-5.525V.463zM8.273 0a8.28 8.28 0 108.273 8.28A8.273 8.273 0 008.273 0zm0 11.658a3.4 3.4 0 113.4-3.4 3.44 3.44 0 01-3.4 3.4zm59.982 15.851h5.851L64.908.463h-8.492l-9.307 27.046h5.851l1.824-5.556h11.648zm-11.893-10.3l4.273-12.933 4.249 12.938zm115.665-6.584a4.44 4.44 0 01-3.305-1.347 4.555 4.555 0 01-1.321-3.313 4.58 4.58 0 014.7-4.665 4.572 4.572 0 011.972.38 5.635 5.635 0 011.524 1.085l-1.186 1.365a4.511 4.511 0 00-1.089-.765 2.885 2.885 0 00-1.23-.24 2.42 2.42 0 00-1.875.818 2.894 2.894 0 00-.741 2.022 2.9 2.9 0 00.741 2.01 2.411 2.411 0 001.875.825 2.823 2.823 0 001.25-.258 4.892 4.892 0 001.121-.8l1.263 1.353a4.828 4.828 0 01-1.591 1.16 5.269 5.269 0 01-2.108.37zm11.011-1.044a3.689 3.689 0 01-2.674 1.044 3.657 3.657 0 01-2.661-1.037 3.433 3.433 0 01-1.063-2.558 3.419 3.419 0 011.076-2.552 3.689 3.689 0 012.674-1.044 3.657 3.657 0 012.663 1.038 3.433 3.433 0 011.063 2.558 3.419 3.419 0 01-1.077 2.551zm-2.648-.644a1.661 1.661 0 001.3-.548 1.965 1.965 0 00.49-1.36 1.933 1.933 0 00-.509-1.347 1.687 1.687 0 00-1.308-.561 1.661 1.661 0 00-1.3.548 1.965 1.965 0 00-.49 1.36 1.933 1.933 0 00.509 1.347 1.687 1.687 0 001.308.561zm5.142 1.533V3.565h1.959v.979a2.53 2.53 0 012.036-1.108 2.01 2.01 0 011.946 1.1 2.89 2.89 0 012.268-1.1 2.247 2.247 0 011.72.651 2.655 2.655 0 01.612 1.888v4.5h-1.959V6.617q0-1.4-1.147-1.4a1.1 1.1 0 00-.87.361 1.539 1.539 0 00-.316 1.044v3.853h-1.958V6.617q0-1.4-1.147-1.4a1.1 1.1 0 00-.87.361 1.539 1.539 0 00-.316 1.044v3.853zm12.577 0V5.238h-.812v-1.61h.812v-.439a2.277 2.277 0 01.554-1.675 2.148 2.148 0 011.59-.541 4.578 4.578 0 011.392.193V2.79a2.615 2.615 0 00-.889-.168q-.709 0-.709.747v.271h1.585v1.6h-1.564v5.232zm10.522-.889a3.939 3.939 0 01-5.335.006 3.433 3.433 0 01-1.063-2.557 3.419 3.419 0 011.076-2.552 3.939 3.939 0 015.335-.006 3.433 3.433 0 011.063 2.558 3.419 3.419 0 01-1.076 2.551zm-2.648-.644a1.661 1.661 0 001.3-.548 1.965 1.965 0 00.49-1.36 1.934 1.934 0 00-.509-1.347 1.687 1.687 0 00-1.311-.56 1.661 1.661 0 00-1.3.548 1.965 1.965 0 00-.49 1.36 1.933 1.933 0 00.509 1.347 1.687 1.687 0 001.311.56zm5.142 1.533V3.565h1.958v1.39a2.168 2.168 0 012.2-1.521v2.049h-.1a1.975 1.975 0 00-1.553.612 2.659 2.659 0 00-.548 1.823v2.552zm7.719.116a2.148 2.148 0 01-1.488-.47 2.08 2.08 0 01-.522-1.6V5.238h-.825V3.565h.825V1.798h1.959v1.767h1.624v1.673h-1.625v2.951q0 .67.631.67a2 2 0 00.966-.245v1.572a2.962 2.962 0 01-1.546.4z" fill="#fff"/></svg>