<svg xmlns="http://www.w3.org/2000/svg" xmlns:xlink="http://www.w3.org/1999/xlink"><symbol id="close" viewBox="0 0 17 17">
    <!-- Generator: Sketch 41.2 (35397) - http://www.bohemiancoding.com/sketch -->
    <title>ic_cancel</title>
    <desc>Created with Sketch.</desc>
    
    <g id="Icons" stroke="none" stroke-width="1" fill="none" fill-rule="evenodd" stroke-linecap="round">
        <g id="24-px-Icons" transform="translate(-364.000000, -124.000000)" stroke="#000000">
            <g id="ic_cancel" transform="translate(360.000000, 120.000000)">
                <g id="cross">
                    <g transform="translate(5.000000, 5.000000)" stroke-width="2">
                        <path d="M0,0 L14.1421356,14.1421356" id="Line"/>
                        <path d="M14,0 L1.77635684e-15,14" id="Line"/>
                    </g>
                </g>
            </g>
        </g>
    </g>
</symbol><symbol id="menu" viewBox="0 0 32 32"><path d="M4,10h24c1.104,0,2-0.896,2-2s-0.896-2-2-2H4C2.896,6,2,6.896,2,8S2.896,10,4,10z M28,14H4c-1.104,0-2,0.896-2,2  s0.896,2,2,2h24c1.104,0,2-0.896,2-2S29.104,14,28,14z M28,22H4c-1.104,0-2,0.896-2,2s0.896,2,2,2h24c1.104,0,2-0.896,2-2  S29.104,22,28,22z"/></symbol></svg>