<svg xmlns="http://www.w3.org/2000/svg" width="220.415" height="28" viewBox="0 0 220.415 28"><defs><style>.a{fill:#fff;}</style></defs><path class="a" d="M44.034.718A13.883,13.883,0,0,1,53.886,4.64a13.52,13.52,0,0,1,2.966,4.3,12.865,12.865,0,0,1,1.061,5.311,13.412,13.412,0,0,1-1.061,5.311,13.971,13.971,0,0,1-2.966,4.3,13.119,13.119,0,0,1-4.409,2.86,13.57,13.57,0,0,1-5.443,1.062H33.665V.718Zm3.429,21.3a7.459,7.459,0,0,0,2.64-1.8,8.859,8.859,0,0,0,1.687-2.7,8.716,8.716,0,0,0,.6-3.268,9,9,0,0,0-.6-3.323A7.962,7.962,0,0,0,50.1,8.262a8.314,8.314,0,0,0-2.64-1.825,9.263,9.263,0,0,0-3.429-.654H39.19V22.7h4.844A8.293,8.293,0,0,0,47.464,22.017Z" transform="translate(-11.948 -0.255)"/><path class="a" d="M127.023.718V27.764H121.5V.718Z" transform="translate(-43.119 -0.255)"/><path class="a" d="M158.532,16.914a7.2,7.2,0,0,1-7.457,5.747c-5.769,0-7.593-4.467-7.593-8.661s1.851-8.661,7.593-8.661a7.171,7.171,0,0,1,7.457,5.747h5.661C163.077,4.44,158.178,0,151.293,0c-7.838,0-13.553,5.747-13.553,14,0,8.226,5.688,14,13.553,14,6.885,0,11.784-4.412,12.9-11.058h-5.661Z" transform="translate(-48.883)"/><path class="a" d="M236.961.718V27.764h-5.525V.718Z" transform="translate(-82.135 -0.255)"/><path class="a" d="M191.442.718V11.694h12.138V.718h5.552V27.764h-5.525V16.542H191.442V27.764h-5.525V.718Z" transform="translate(-65.98 -0.255)"/><path class="a" d="M8.273,0a8.28,8.28,0,1,0,8.273,8.28A8.273,8.273,0,0,0,8.273,0Zm0,11.658a3.4,3.4,0,1,1,3.4-3.4A3.44,3.44,0,0,1,8.273,11.658Z"/><path class="a" d="M94.171,27.764h5.851L90.824.718H82.332L73.025,27.764h5.851L80.7,22.208H92.348Zm-11.893-10.3L86.551,4.531,90.8,17.469Z" transform="translate(-25.916 -0.255)"/><path class="a" d="M5.474,12.86a4.44,4.44,0,0,1-3.305-1.347A4.555,4.555,0,0,1,.848,8.2a4.58,4.58,0,0,1,4.7-4.665,4.572,4.572,0,0,1,1.972.38A5.635,5.635,0,0,1,9.044,5L7.858,6.365A4.511,4.511,0,0,0,6.769,5.6,2.885,2.885,0,0,0,5.539,5.36a2.42,2.42,0,0,0-1.875.818A2.894,2.894,0,0,0,2.923,8.2a2.9,2.9,0,0,0,.741,2.01,2.411,2.411,0,0,0,1.875.825,2.823,2.823,0,0,0,1.25-.258,4.892,4.892,0,0,0,1.121-.8l1.263,1.353a4.828,4.828,0,0,1-1.591,1.16A5.269,5.269,0,0,1,5.474,12.86Zm11.011-1.044a3.689,3.689,0,0,1-2.674,1.044,3.657,3.657,0,0,1-2.661-1.037,3.433,3.433,0,0,1-1.063-2.558,3.419,3.419,0,0,1,1.076-2.552,3.689,3.689,0,0,1,2.674-1.044A3.657,3.657,0,0,1,16.5,6.707a3.433,3.433,0,0,1,1.063,2.558A3.419,3.419,0,0,1,16.486,11.816Zm-2.648-.644a1.661,1.661,0,0,0,1.3-.548,1.965,1.965,0,0,0,.49-1.36,1.933,1.933,0,0,0-.509-1.347,1.687,1.687,0,0,0-1.308-.561,1.661,1.661,0,0,0-1.3.548,1.965,1.965,0,0,0-.49,1.36,1.933,1.933,0,0,0,.509,1.347A1.687,1.687,0,0,0,13.837,11.172Zm5.142,1.533V5.8h1.959v.979a2.53,2.53,0,0,1,2.036-1.108,2.01,2.01,0,0,1,1.946,1.1,2.89,2.89,0,0,1,2.268-1.1,2.247,2.247,0,0,1,1.72.651,2.655,2.655,0,0,1,.612,1.888v4.5H27.561V8.852q0-1.4-1.147-1.4a1.1,1.1,0,0,0-.87.361,1.539,1.539,0,0,0-.316,1.044v3.853H23.27V8.852q0-1.4-1.147-1.4a1.1,1.1,0,0,0-.87.361,1.539,1.539,0,0,0-.316,1.044v3.853Zm12.577,0V7.473h-.812V5.863h.812V5.424a2.277,2.277,0,0,1,.554-1.675A2.148,2.148,0,0,1,33.7,3.208a4.578,4.578,0,0,1,1.392.193V5.025a2.615,2.615,0,0,0-.889-.168q-.709,0-.709.747v.271h1.585v1.6H33.515v5.232Zm10.522-.889a3.939,3.939,0,0,1-5.335.006A3.433,3.433,0,0,1,35.68,9.265a3.419,3.419,0,0,1,1.076-2.552,3.939,3.939,0,0,1,5.335-.006,3.433,3.433,0,0,1,1.063,2.558A3.419,3.419,0,0,1,42.078,11.816Zm-2.648-.644a1.661,1.661,0,0,0,1.3-.548,1.965,1.965,0,0,0,.49-1.36,1.934,1.934,0,0,0-.509-1.347A1.687,1.687,0,0,0,39.4,7.357a1.661,1.661,0,0,0-1.3.548,1.965,1.965,0,0,0-.49,1.36,1.933,1.933,0,0,0,.509,1.347A1.687,1.687,0,0,0,39.43,11.172Zm5.142,1.533V5.8H46.53V7.19a2.168,2.168,0,0,1,2.2-1.521V7.718h-.1a1.975,1.975,0,0,0-1.553.612,2.659,2.659,0,0,0-.548,1.823v2.552Zm7.719.116a2.148,2.148,0,0,1-1.488-.47,2.08,2.08,0,0,1-.522-1.6V7.473h-.825V5.8h.825V4.033h1.959V5.8h1.624V7.473H52.239v2.951q0,.67.631.67a2,2,0,0,0,.966-.245v1.572A2.962,2.962,0,0,1,52.29,12.821Z" transform="translate(166.553 -2.235)"/></svg>